<svg width="48" height="44" viewBox="0 0 48 44" fill="none" xmlns="http://www.w3.org/2000/svg">
<path d="M4.96863 29.5113C3.6698 30.2949 1.7817 33.2661 1 34.6537L10.9216 33.1844C9.23791 34.4905 6.05098 37.1514 6.77255 37.3473C7.67451 37.5922 14.1686 34.6537 16.3333 34.164C18.0651 33.7722 23.6693 39.2247 26.2549 42C26.3752 39.9594 26.9043 35.7801 28.0588 35.3883C29.2133 34.9965 35.8758 37.3474 39.0627 38.5717C38.1608 37.2657 36.5733 34.5068 37.4392 33.9191C38.3051 33.3314 44.1739 34.817 47 35.6332C45.9176 33.5926 43.4282 29.0215 42.1294 27.0625C40.5059 24.6138 40.6863 12.8597 38.8824 6.24804C37.0784 -0.363624 23.549 0.860758 18.3176 1.59539C13.0863 2.33002 10.3804 5.75829 10.9216 7.22754C11.4627 8.6968 11.2824 21.9201 10.9216 23.8791C10.5608 25.8382 6.59216 28.5318 4.96863 29.5113Z" fill="black" stroke="black"/>
</svg>
