<svg width="60" height="51" viewBox="0 0 60 51" fill="none" xmlns="http://www.w3.org/2000/svg">
<g clip-path="url(#clip0_44_596)">
<path d="M7.10799 8.75121C7.10799 7.83435 7.10439 7.07971 7.10799 6.32507C7.12059 3.9044 8.03339 2.30581 10.3199 1.63137C12.6622 0.940533 15.1035 0.29344 17.5197 0.222351C25.1894 -0.00185261 32.8681 -0.0583593 40.5413 0.0582996C43.2671 0.100224 46.011 0.694455 48.6971 1.27775C51.3023 1.84282 53.1171 3.36485 52.8957 6.90472C52.8597 7.47161 52.8903 8.04397 52.8903 8.60903C54.219 8.77309 55.472 8.85147 56.6927 9.09208C59.2421 9.59699 60.1711 10.7326 59.9748 13.321C59.82 15.3643 59.5319 17.415 59.0944 19.4164C58.7704 20.8947 56.9358 21.6001 55.5873 20.902C55.3424 20.7744 55.1822 20.2549 55.1768 19.914C55.1408 17.3639 55.1462 14.812 55.1552 12.2619C55.157 11.6914 55.0435 11.2703 54.4116 11.0972C53.1171 10.7435 52.8831 10.8985 52.8831 12.2419C52.8795 21.93 52.8777 31.6164 52.8759 41.3045C52.8759 43.7781 52.2763 44.7241 49.9682 45.6173C49.2733 45.887 48.9798 46.2224 49.0518 46.988C49.1238 47.77 49.0122 48.5702 49.0788 49.354C49.1598 50.3055 48.7061 50.907 47.869 50.9416C45.7823 51.0273 43.6884 51.0127 41.6018 50.9343C40.8348 50.9052 40.4009 50.3529 40.4549 49.4852C40.4999 48.7652 40.4639 48.0397 40.4639 47.2505C33.4694 47.2505 26.5613 47.2505 19.5343 47.2505C19.5343 47.9942 19.4929 48.716 19.5451 49.4305C19.6117 50.3365 19.1688 50.9179 18.3641 50.9471C16.2774 51.0218 14.1835 51.0146 12.0969 50.9307C11.2885 50.8979 10.8564 50.3274 10.9194 49.416C10.9788 48.5392 10.9014 47.6533 10.941 46.7747C10.9662 46.2115 10.8222 45.8816 10.2425 45.7157C9.78878 45.5863 9.36568 45.3311 8.94979 45.0923C7.70032 44.3705 7.09899 43.3169 7.10259 41.8094C7.12959 31.97 7.12239 22.1305 7.09539 12.2911C7.09358 11.8172 7.54548 10.9604 6.44004 10.9714C5.22297 10.9841 4.85209 11.2958 4.85029 12.384C4.84489 14.843 4.85209 17.3038 4.84309 19.7645C4.83949 20.9001 4.73507 20.9913 3.59361 21.0095C1.50155 21.0405 1.06766 20.8199 0.680574 18.6909C0.302491 16.6148 0.140455 14.4894 0.0108264 12.3768C-0.0755926 10.9841 0.698578 9.93785 1.98046 9.52955C3.22273 9.134 4.54422 8.98635 5.83691 8.76397C6.20599 8.69653 6.59848 8.75121 7.10799 8.75121ZM10.8258 19.03C10.8186 19.03 10.8114 19.03 10.8042 19.03C10.8042 22.0048 10.8384 24.9814 10.7862 27.9544C10.7664 29.0681 11.2327 29.81 12.1059 30.355C12.511 30.6084 12.9485 30.818 13.3932 30.9948C16.353 32.1723 19.4767 32.5186 22.6076 32.8249C29.1124 33.4629 35.6011 33.3517 42.0393 32.2015C43.9063 31.8679 45.7337 31.2135 47.5179 30.5391C48.5189 30.1618 49.2066 29.367 49.1994 28.0965C49.1688 22.0248 49.1778 15.9531 49.1922 9.88135C49.194 8.97724 48.816 8.36478 48.0364 8.00569C47.5485 7.78148 47.039 7.53541 46.5169 7.46979C44.3492 7.19272 42.1779 6.82269 40.003 6.77712C34.6685 6.66411 29.3285 6.68781 23.9921 6.70786C21.6246 6.71697 19.2517 6.76983 16.8949 6.96123C15.3844 7.08518 13.8703 7.3987 12.4102 7.81612C11.1085 8.18797 10.8276 8.76033 10.8258 10.1055C10.824 13.0804 10.8258 16.0552 10.8258 19.03ZM30.0882 1.80818C27.3606 1.80818 24.633 1.80636 21.9054 1.81001C20.863 1.81183 20.7298 1.95583 20.7298 3.02763C20.728 4.55696 20.818 4.6882 21.9469 4.69002C27.312 4.69367 32.6772 4.69367 38.0424 4.69002C39.1766 4.6882 39.2703 4.54967 39.2649 3.02946C39.2613 1.93213 39.137 1.81001 38.001 1.81001C35.3634 1.80636 32.7258 1.80818 30.0882 1.80818ZM42.5848 41.5725C42.5938 41.6363 42.6046 41.7001 42.6136 41.7639C44.1691 41.4977 45.7481 41.3209 47.2766 40.9381C48.8088 40.5554 49.1995 39.8973 49.2031 38.3261C49.2031 37.9324 49.2031 37.5368 49.2013 37.1431C49.194 35.4041 48.6251 34.9029 46.9472 35.2364C44.7687 35.6703 42.7954 36.5999 41.0527 37.9834C40.5954 38.3461 40.0966 38.8255 39.9238 39.3541C39.4773 40.7303 39.6141 41.7055 41.2363 41.5779C41.6846 41.5415 42.1365 41.5725 42.5848 41.5725ZM17.3486 41.7857C17.3594 41.7147 17.372 41.6436 17.3828 41.5725C17.8311 41.5725 18.2812 41.5907 18.7295 41.5688C20.2221 41.4996 20.7658 40.4733 19.9718 39.1317C19.7036 38.6779 19.2967 38.2732 18.8772 37.9469C17.246 36.6764 15.4312 35.7705 13.4094 35.3312C12.9755 35.2364 12.5218 35.1781 12.0789 35.189C11.2723 35.2091 10.797 35.621 10.7988 36.4905C10.8006 37.1267 10.7898 37.7628 10.788 38.4008C10.7844 39.8809 11.0869 40.4606 12.529 40.8525C14.1061 41.2808 15.7409 41.485 17.3486 41.7857Z" fill="white"/>
</g>
<defs>
<clipPath id="clip0_44_596">
<rect width="60" height="51" fill="white"/>
</clipPath>
</defs>
</svg>
