<svg width="49" height="49" viewBox="0 0 49 49" fill="none" xmlns="http://www.w3.org/2000/svg">
<g clip-path="url(#clip0_143_327)">
<path d="M16.8663 34.5258C15.0546 33.0544 13.887 31.2197 13.2844 29.0394C12.506 26.2212 12.998 23.5629 14.4007 21.0488C15.0902 19.8145 15.8172 18.6039 16.5304 17.3834C17.1034 16.3998 17.8541 16.1767 18.8439 16.7435C21.9259 18.5051 25 20.2826 28.0761 22.0541C29.9846 23.1541 31.8931 24.2561 33.8035 25.3522C34.7064 25.8696 35.1213 26.6181 34.6827 27.3726C33.3807 29.6082 32.4067 32.0709 30.4667 33.8839C27.6494 36.5185 24.3303 37.346 20.6121 36.3802C19.7646 36.159 19.3833 36.3269 19 37.0774C18.3915 38.2722 17.783 39.5026 16.9572 40.5453C14.0945 44.1634 8.94987 44.1516 5.99233 40.6085C0.835891 34.431 -1.03702 27.3627 0.547447 19.5005C1.9304 12.6356 5.82243 7.40008 11.7454 3.71289C18.0023 -0.18365 24.7353 -0.965723 31.7469 1.1435C36.9053 2.6958 41.0858 5.74312 44.2725 10.1156C47.6528 14.7527 49.2412 19.9429 48.9725 25.6642C48.7098 31.2711 46.7381 36.2262 43.0653 40.4979C39.5606 44.5742 35.1786 47.2246 29.9589 48.4135C28.2105 48.8104 26.381 48.8815 24.5812 48.9961C23.5064 49.0652 22.9197 48.449 22.896 47.4971C22.8703 46.4859 23.4333 45.9073 24.5733 45.8796C29.1469 45.769 33.3669 44.4794 37.01 41.7303C42.4904 37.5948 45.4717 32.0847 45.7522 25.133C46.1493 15.2504 39.1654 6.15983 29.5381 3.89063C24.0794 2.60298 18.8123 3.2389 13.9246 6.15983C8.10627 9.63768 4.5106 14.6915 3.45165 21.3964C2.60607 26.7465 3.82109 31.7233 6.77074 36.2617C7.28836 37.0576 7.89883 37.7962 8.49745 38.5368C10.1629 40.5987 13.1718 40.4999 14.6437 38.2919C15.4221 37.1169 16.08 35.8628 16.8663 34.5258ZM25.2826 22.9527C25.2253 22.9072 25.166 22.8618 25.1087 22.8144C23.2773 24.3865 21.4478 25.9605 19.5512 27.5898C20.381 28.1013 21.0626 28.52 21.7442 28.9426C20.9776 30.2915 20.2723 31.5357 19.565 32.7779C19.6282 32.8214 19.6895 32.8629 19.7527 32.9063C21.5703 31.3382 23.3879 29.7701 25.2746 28.1428C24.4725 27.6471 23.8127 27.2363 23.0955 26.7919C23.8463 25.4727 24.5634 24.2127 25.2826 22.9527Z" fill="white"/>
<path d="M24.2866 18.5861C23.5042 18.1476 22.7713 17.7388 21.9751 17.2925C23.3047 15.0114 24.6205 12.76 25.9323 10.5066C26.5784 9.39475 26.9676 9.30192 28.0364 9.9813C28.637 10.3625 28.8306 10.8404 28.4592 11.4724C27.09 13.8186 25.711 16.1609 24.2866 18.5861Z" fill="white"/>
</g>
<defs>
<clipPath id="clip0_143_327">
<rect width="49" height="49" rx="11" fill="white"/>
</clipPath>
</defs>
</svg>
