<svg width="61" height="45" viewBox="0 0 61 45" fill="none" xmlns="http://www.w3.org/2000/svg">
<g clip-path="url(#clip0_70_161)">
<path d="M3.84407 18.1669C2.08622 17.7931 0.994764 16.7135 0.311243 15.2027C-0.45947 13.498 0.228722 11.9282 2.05819 11.5529C3.28043 11.3016 4.58053 11.3264 5.83858 11.3853C6.45204 11.4148 6.75876 11.2643 6.97207 10.754C7.63847 9.15946 8.28462 7.55713 8.98527 5.97653C9.43368 4.96519 9.9039 3.95229 10.4722 3.00455C11.5605 1.18507 13.2421 0.246631 15.3456 0.133398C16.8995 0.0496363 18.458 0.0666988 20.015 0.0604943C27.6988 0.0325738 35.3826 0 43.0648 0C44.1485 0 45.2446 0.100824 46.3127 0.28696C48.6996 0.701113 50.3391 2.14057 51.2998 4.29975C52.3383 6.63111 53.2678 9.0121 54.2674 11.4241C55.186 11.3838 56.1638 11.269 57.1354 11.3186C57.9248 11.359 58.7453 11.4877 59.4802 11.7654C60.7741 12.2524 61.2303 13.3072 60.8909 14.652C60.4798 16.2869 59.1392 17.562 57.1292 18.1871C57.3643 18.8835 57.5994 19.58 57.8376 20.2764C58.5772 22.4434 59.0225 24.6646 59.0411 26.9587C59.0785 31.4819 59.1112 36.005 59.1252 40.5296C59.1268 41.0942 59.0443 41.6651 58.9431 42.2219C58.6535 43.8087 57.9294 44.6634 56.3117 44.8356C54.5975 45.0186 52.8412 45.0558 51.1238 44.9116C49.4407 44.7704 48.6264 43.7529 48.5423 42.042C48.48 40.7856 48.5299 39.5229 48.5299 38.2293C36.4647 38.2293 24.5147 38.2293 12.4652 38.2293C12.4652 39.4438 12.5165 40.601 12.4543 41.7504C12.3328 43.9561 11.4951 44.8744 9.29823 44.9721C7.59954 45.0481 5.88373 44.9535 4.18661 44.8061C3.02976 44.7053 2.32132 43.9158 2.13916 42.7803C2.00058 41.9179 1.94142 41.0337 1.93519 40.1589C1.91183 36.6688 2.01304 33.1757 1.89938 29.6887C1.77949 25.9939 2.26683 22.4279 3.59028 18.975C3.68681 18.7331 3.74753 18.4818 3.84407 18.1669ZM29.9985 18.7455C29.9985 18.778 29.9985 18.8091 29.9985 18.8416C34.0467 18.8416 38.0949 18.8711 42.1431 18.8308C44.8662 18.8044 47.5894 18.6927 50.3111 18.5904C51.9615 18.5283 52.3585 17.9746 51.9552 16.3474C51.8447 15.8991 51.6797 15.4586 51.4991 15.0321C50.3329 12.2757 49.0359 9.56585 48.0145 6.7583C46.8561 3.57227 44.7323 2.33756 41.3692 2.40736C34.3659 2.55472 27.3578 2.4632 20.3513 2.48647C19.2895 2.48957 18.2214 2.5299 17.1657 2.64003C15.0965 2.85719 14.0066 4.32146 13.2437 6.0122C12.2581 8.1993 11.4111 10.4469 10.5205 12.6759C9.98486 14.0161 9.415 15.3485 8.97904 16.7212C8.58356 17.9637 8.95413 18.4492 10.2293 18.6307C10.6902 18.6958 11.1588 18.7408 11.6244 18.7408C17.7496 18.7486 23.8748 18.7455 29.9985 18.7455ZM44.8709 25.8497C35.244 25.8497 25.7105 25.8497 16.1739 25.8497C16.1739 27.6226 16.1739 29.3413 16.1739 31.0615C25.7712 31.0615 35.3234 31.0615 44.8709 31.0615C44.8709 29.2948 44.8709 27.5963 44.8709 25.8497ZM55.3448 29.3661C55.3791 27.618 53.9482 26.1739 52.1577 26.1475C50.3733 26.1227 48.8989 27.5171 48.8646 29.2622C48.8304 30.9839 50.3126 32.4916 52.0549 32.5041C53.8361 32.518 55.3106 31.1111 55.3448 29.3661ZM8.94012 26.1568C7.12777 26.1444 5.70156 27.5187 5.68755 29.2901C5.67354 31.0444 7.11376 32.4978 8.88251 32.5134C10.6481 32.5273 12.1211 31.0925 12.132 29.3459C12.1444 27.5559 10.754 26.1692 8.94012 26.1568Z" fill="white"/>
</g>
<defs>
<clipPath id="clip0_70_161">
<rect width="61" height="45" fill="white"/>
</clipPath>
</defs>
</svg>
