<svg width="43" height="60" viewBox="0 0 43 60" fill="none" xmlns="http://www.w3.org/2000/svg">
<g clip-path="url(#clip0_44_598)">
<path d="M12.0688 51.5069C5.98796 52.2998 4.24006 50.8889 4.1858 45.6068C4.15479 42.4741 4.29044 39.3413 4.15479 36.2125C3.76335 27.1719 7.60797 20.8248 15.7274 17.3461C13.9795 11.9435 9.80932 11.3333 5.03456 11.9008C4.17417 12.0018 3.15488 12.1417 2.44564 11.7842C1.45736 11.2866 -0.0851359 10.2333 0.00400338 9.61534C0.155153 8.54648 1.2442 6.96068 2.17435 6.778C4.46484 6.32713 6.93361 6.79743 9.24736 6.40876C10.724 6.16 12.4874 5.38654 13.3788 4.25549C17.7505 -1.29481 24.9165 -1.53579 28.8967 4.23217C30.1757 6.08227 31.4353 6.63419 33.4506 6.53313C35.5706 6.42819 37.7874 6.17944 39.7911 6.68083C41.0236 6.98788 41.9382 8.58146 42.9963 9.5959C41.9266 10.4277 40.915 11.3488 39.764 12.0446C39.3028 12.3244 38.5393 12.1029 37.9153 12.1106C31.288 12.1689 31.288 12.1689 26.7884 17.3267C35.7566 21.0113 39.2098 27.9609 38.6672 37.3202C38.5083 40.0681 38.6633 42.8316 38.6362 45.5835C38.5819 50.885 36.8689 52.2842 30.7532 51.5147C30.7532 49.4003 30.8268 47.1926 30.7377 44.9927C30.5051 39.0926 26.4512 34.8599 21.2385 34.9959C16.1033 35.132 12.3091 39.2247 12.0766 44.9616C11.999 47.0721 12.0688 49.1826 12.0688 51.5069ZM21.3664 4.27103C18.4946 4.22439 16.1808 6.53702 16.1847 9.44821C16.1886 12.2972 18.5798 14.6409 21.4168 14.5826C24.06 14.5282 26.4396 12.1961 26.5016 9.60368C26.5675 6.82853 24.1452 4.31379 21.3664 4.27103Z" fill="white"/>
<path d="M16.1187 49.2881C16.1187 47.539 16.0373 45.7861 16.1381 44.0448C16.3047 41.1375 17.9867 39.3768 20.7888 39.0659C23.6645 38.7472 25.9395 40.3135 26.2031 43.0731C26.6177 47.3835 26.6139 51.7911 26.1837 56.1016C25.9046 58.9272 23.5211 60.2682 20.6725 59.9572C17.9906 59.6657 16.3745 58.0022 16.1652 55.2815C16.0141 53.2953 16.1342 51.2897 16.1342 49.2919C16.1342 49.2881 16.1264 49.2881 16.1187 49.2881Z" fill="white"/>
</g>
<defs>
<clipPath id="clip0_44_598">
<rect width="43" height="60" fill="white"/>
</clipPath>
</defs>
</svg>
