<svg width="50" height="49" viewBox="0 0 50 49" fill="none" xmlns="http://www.w3.org/2000/svg">
<path d="M5.54415 44.8405C5.54415 44.3547 5.54415 43.9999 5.54415 43.6451C5.54415 29.9099 5.54415 16.1747 5.54415 2.43946C5.54415 0.592694 6.13557 0.00136461 7.99329 0.00136461C16.3095 -0.000454869 24.6221 -0.000454869 32.9365 0.00136461C34.7126 0.00136461 35.3185 0.619986 35.3185 2.41399C35.3185 4.47545 35.3367 6.53692 35.3058 8.59838C35.2986 9.15332 35.4473 9.38985 36.0224 9.50084C37.8294 9.84836 39.6308 10.2359 41.4142 10.6817C41.7716 10.7708 42.2124 11.1238 42.3394 11.4604C44.4493 17.0626 46.5374 22.672 48.582 28.2978C49.861 31.8112 48.865 35.7104 46.1419 38.194C43.4043 40.6921 39.5075 41.2725 36.0896 39.695C35.8773 39.5968 35.6578 39.5131 35.3693 39.393C35.3693 41.2052 35.3693 42.9428 35.3693 44.7841C37.1926 44.7841 38.9904 44.7841 40.8518 44.7841C40.8518 46.0796 40.8518 47.2677 40.8518 48.5122C27.2345 48.5122 13.6481 48.5122 0 48.5122C0 47.3132 0 46.1432 0 44.8405C1.8033 44.8405 3.62292 44.8405 5.54415 44.8405ZM20.4295 14.9665C23.4211 14.9665 26.4127 14.972 29.4061 14.9647C30.9427 14.9611 31.6212 14.2861 31.6303 12.7431C31.643 10.4706 31.643 8.19628 31.6303 5.92375C31.6212 4.44816 30.9264 3.73129 29.4623 3.72947C23.4483 3.72037 17.4343 3.72401 11.4203 3.73493C9.95442 3.73675 9.25415 4.44634 9.24508 5.91284C9.23238 8.15625 9.23419 10.3997 9.24145 12.6413C9.24689 14.3043 9.90363 14.9611 11.5473 14.9629C14.5044 14.9684 17.467 14.9647 20.4295 14.9665ZM35.3185 13.1507C35.3185 13.5874 35.3185 13.884 35.3185 14.1787C35.3185 20.5669 35.3312 26.9569 35.304 33.3451C35.3004 34.0801 35.5471 34.615 36.0297 35.1136C37.8493 36.9949 40.6631 37.3806 42.8202 36.0288C45.0534 34.6296 45.9823 31.9732 45.0589 29.4568C43.4769 25.1483 41.8514 20.8562 40.2731 16.5458C40.0826 16.0255 39.8268 15.8399 39.2952 15.8581C38.3101 15.889 37.3214 15.8672 36.4923 15.8672C35.7485 15.043 37.0257 13.6292 35.3185 13.1507Z" fill="white"/>
</svg>
