<svg width="51" height="45" viewBox="0 0 51 45" fill="none" xmlns="http://www.w3.org/2000/svg">
<g clip-path="url(#clip0_143_293)">
<path d="M23.4318 44.9815C17.9044 44.9815 12.3759 44.9837 6.84848 44.9761C6.49495 44.9761 5.99301 45.1317 5.86873 44.6723C5.74083 44.1987 6.27656 44.1562 6.59389 44.0201C8.64388 43.1415 10.6987 42.2716 12.762 41.418C13.0419 41.3015 13.3749 41.2362 13.6838 41.2362C20.2368 41.2264 26.7897 41.2275 33.3427 41.2373C33.6516 41.2373 33.9858 41.3037 34.2657 41.4202C36.3821 42.2999 38.4888 43.1981 40.5955 44.0953C40.879 44.2161 41.2965 44.3272 41.1192 44.6854C41.0383 44.8508 40.6341 44.9673 40.3771 44.9684C34.7291 44.9837 29.0798 44.9804 23.4318 44.9804C23.4318 44.9804 23.4318 44.9804 23.4318 44.9815Z" fill="white"/>
<path d="M41.9312 15.9566C41.3617 14.3213 40.7922 12.6817 40.2203 11.0431C39.7798 9.78019 39.9838 9.97943 38.6469 9.9729C36.7405 9.9631 34.8341 9.97072 32.9373 9.97072C32.4897 7.74751 35.2491 4.90153 38.3247 4.35716C41.8262 3.73766 45.3434 5.82914 46.1193 8.99194C46.848 11.9555 44.8379 15.3306 41.9312 15.9566Z" fill="white"/>
<path d="M28.6613 33.0336C25.1948 33.0336 21.8115 33.0336 18.345 33.0336C18.526 30.9018 18.7033 28.8006 18.8843 26.671C21.9816 26.671 25.0234 26.671 28.1183 26.671C28.2993 28.7962 28.4791 30.8975 28.6613 33.0336Z" fill="white"/>
<path d="M18.0567 26.6666C17.8757 28.8082 17.6983 30.8986 17.5173 33.026C14.5745 33.026 11.6714 33.026 8.71045 33.026C9.20636 30.891 9.69502 28.7875 10.1885 26.6666C12.8008 26.6666 15.3684 26.6666 18.0567 26.6666Z" fill="white"/>
<path d="M28.9436 26.6612C31.6162 26.6612 34.1802 26.6612 36.8105 26.6612C37.3028 28.7657 37.7939 30.8637 38.2971 33.0173C35.3482 33.0173 32.456 33.0173 29.4878 33.0173C29.308 30.9236 29.1282 28.8213 28.9436 26.6612Z" fill="white"/>
<path d="M37.6479 26.6405C38.5987 26.6405 39.4783 26.6405 40.3591 26.6405C41.6647 26.6405 42.9702 26.647 44.2757 26.6361C44.587 26.634 44.7946 26.6721 44.9032 26.9911C45.5595 28.9301 46.2376 30.8626 46.9061 32.7973C46.929 32.8638 46.9266 32.9367 46.9399 33.0369C44.3517 33.0369 41.7878 33.0369 39.1357 33.0369C38.647 30.9356 38.1559 28.8223 37.6479 26.6405Z" fill="white"/>
<path d="M0 33.063C0.739637 30.9389 1.44066 28.9181 2.15617 26.9018C2.19357 26.7973 2.35767 26.6557 2.46385 26.6547C4.72982 26.6405 6.99699 26.6438 9.34984 26.6438C9.09284 27.7586 8.8479 28.8147 8.60537 29.8708C8.39301 30.793 8.19755 31.7173 7.95864 32.634C7.91641 32.7963 7.69682 33.0434 7.55685 33.0456C5.06766 33.0706 2.57848 33.063 0 33.063Z" fill="white"/>
<path d="M19.3646 21.0106C22.1554 21.0106 24.8594 21.0106 27.6357 21.0106C27.7745 22.6252 27.9108 24.2202 28.0508 25.8566C25.003 25.8566 22.0239 25.8566 18.9543 25.8566C19.0919 24.2409 19.2258 22.6481 19.3646 21.0106Z" fill="white"/>
<path d="M10.3718 25.8555C10.7579 24.2017 11.1296 22.6121 11.5036 21.0095C13.8444 21.0095 16.1297 21.0095 18.5308 21.0095C18.3968 22.6296 18.2641 24.2257 18.1302 25.8555C15.5408 25.8555 12.9998 25.8555 10.3718 25.8555Z" fill="white"/>
<path d="M36.632 25.8653C34.0041 25.8653 31.4787 25.8653 28.8821 25.8653C28.7433 24.2463 28.607 22.6502 28.467 21.0171C30.8525 21.0171 33.1558 21.0171 35.5039 21.0171C35.8755 22.6165 36.2459 24.2093 36.632 25.8653Z" fill="white"/>
<path d="M19.4321 20.1995C19.5649 18.6665 19.6928 17.1771 19.8231 15.6616C22.2954 15.6616 24.7109 15.6616 27.1796 15.6616C27.3099 17.1782 27.4378 18.6676 27.5706 20.1995C24.8473 20.1995 22.1904 20.1995 19.4321 20.1995Z" fill="white"/>
<path d="M44.4265 25.8577C42.1147 25.8577 39.8161 25.8577 37.4669 25.8577C37.0977 24.2616 36.7297 22.6742 36.3472 21.0269C36.574 21.0106 36.7441 20.9877 36.9143 20.9877C38.7024 20.9845 40.4906 20.9866 42.2787 20.9834C42.5647 20.9834 42.8145 20.9616 42.9279 21.3056C43.4105 22.7624 43.9245 24.2115 44.4241 25.6639C44.441 25.7129 44.4265 25.7706 44.4265 25.8577Z" fill="white"/>
<path d="M9.53327 25.8697C7.17681 25.8697 4.89033 25.8697 2.52783 25.8697C2.63401 25.5267 2.72089 25.2186 2.82586 24.9159C3.23972 23.7227 3.65116 22.5283 4.09036 21.3416C4.14345 21.1979 4.36184 21.0041 4.50543 21.0019C6.49509 20.9834 8.48596 20.9932 10.4768 20.9986C10.513 20.9986 10.548 21.0269 10.647 21.0694C10.2814 22.6459 9.91214 24.2355 9.53327 25.8697Z" fill="white"/>
<path d="M18.9952 15.6311C18.8637 17.1902 18.7382 18.6665 18.6091 20.1897C16.319 20.1897 14.047 20.1897 11.699 20.1897C11.7895 19.7879 11.8739 19.4047 11.962 19.0225C12.1961 18.0133 12.4217 17.0018 12.6811 15.998C12.7173 15.8565 12.9285 15.6485 13.0612 15.6474C15.005 15.6235 16.9476 15.6311 18.9952 15.6311Z" fill="white"/>
<path d="M34.2635 15.6725C34.611 17.1695 34.9573 18.6665 35.3156 20.206C32.9797 20.206 30.7209 20.206 28.4031 20.206C28.2716 18.6981 28.1413 17.2076 28.0073 15.6725C30.1068 15.6725 32.1616 15.6725 34.2635 15.6725Z" fill="white"/>
<path d="M27.1083 14.8559C24.6674 14.8559 22.3278 14.8559 19.9014 14.8559C19.9677 13.9849 20.0317 13.1433 20.0968 12.3028C20.1053 12.195 20.127 12.0872 20.1379 11.9784C20.2682 10.7187 20.2682 10.7187 21.698 10.7187C23.2231 10.7187 24.7494 10.7089 26.2746 10.7296C26.4495 10.7318 26.762 10.8951 26.7729 11.005C26.9092 12.2647 26.9997 13.5277 27.1083 14.8559Z" fill="white"/>
<path d="M11.9078 15.6322C11.5446 17.2022 11.2007 18.6872 10.8496 20.2027C8.72845 20.2027 6.6314 20.2027 4.46558 20.2027C4.97596 18.7275 5.46584 17.2947 5.97743 15.8674C6.01363 15.7661 6.19944 15.6431 6.31648 15.642C8.14205 15.6278 9.96761 15.6322 11.9078 15.6322Z" fill="white"/>
<path d="M42.5539 20.2354C40.761 20.2354 39.0766 20.2354 37.391 20.2354C36.1771 20.2354 36.1735 20.2365 35.9225 19.1891C35.6728 18.1439 35.4315 17.0966 35.1902 16.0503C35.1624 15.9316 35.1636 15.8075 35.1455 15.6344C37.0266 15.6344 38.8727 15.63 40.7175 15.6453C40.8273 15.6463 40.9987 15.7857 41.0373 15.8913C41.5416 17.3012 42.0279 18.7177 42.5539 20.2354Z" fill="white"/>
<path d="M12.9238 14.881C13.2363 13.5255 13.5199 12.2658 13.8288 11.0127C13.8577 10.8972 14.0496 10.7307 14.169 10.7296C15.8908 10.7111 17.6138 10.7165 19.4056 10.7165C19.2946 12.0578 19.1969 13.336 19.0702 14.612C19.0605 14.71 18.847 14.8679 18.7275 14.869C16.8211 14.8853 14.9159 14.881 12.9238 14.881Z" fill="white"/>
<path d="M27.9397 14.8821C27.8238 13.4678 27.714 12.1362 27.6018 10.7655C27.8033 10.7459 27.9565 10.7187 28.1086 10.7187C29.6156 10.7143 31.1214 10.7252 32.6284 10.7078C33.0001 10.7034 33.1509 10.8069 33.2233 11.1455C33.4827 12.3692 33.7807 13.5864 34.0703 14.8309C33.9038 14.8527 33.788 14.8799 33.6721 14.8799C31.7863 14.8831 29.9004 14.8821 27.9397 14.8821Z" fill="white"/>
<path d="M33.9534 10.7209C35.686 10.7209 37.3282 10.7165 38.9692 10.7307C39.0898 10.7318 39.2841 10.845 39.3191 10.9419C39.7824 12.2266 40.224 13.5189 40.697 14.8831C39.1888 14.8831 37.7686 14.8831 36.3484 14.8831C34.9247 14.8831 34.9247 14.8821 34.6339 13.6333C34.4143 12.6948 34.1959 11.7584 33.9534 10.7209Z" fill="white"/>
<path d="M12.0937 14.8603C10.1499 14.8603 8.28936 14.8603 6.33228 14.8603C6.62186 13.9958 6.88972 13.1727 7.17689 12.354C7.36391 11.8205 7.41338 11.0943 7.82362 10.821C8.23144 10.5488 9.01452 10.7241 9.6335 10.7209C10.7339 10.7132 11.8355 10.7187 13.0409 10.7187C12.7199 12.1243 12.4111 13.4754 12.0937 14.8603Z" fill="white"/>
<path d="M22.2893 33.8349C23.111 33.8349 23.888 33.8349 24.7097 33.8349C24.7097 36.0364 24.7097 38.2171 24.7097 40.4382C23.9182 40.4382 23.1291 40.4382 22.2893 40.4382C22.2893 38.2563 22.2893 36.0766 22.2893 33.8349Z" fill="white"/>
<path d="M36.3183 3.50576C36.0637 3.78121 35.9189 4.08388 35.6921 4.14485C35.4351 4.21453 34.9645 4.16336 34.8342 4.00223C34.3769 3.43608 33.9811 2.81767 33.6626 2.17967C33.5709 1.99567 33.735 1.57759 33.9317 1.4415C34.1271 1.30649 34.6773 1.27492 34.7823 1.39795C35.3325 2.04684 35.791 2.75997 36.3183 3.50576Z" fill="white"/>
<path d="M43.1028 3.63096C43.2102 3.36531 43.25 3.20526 43.3344 3.0659C43.6144 2.60645 43.9027 2.15136 44.2008 1.7028C44.4602 1.31194 44.827 1.141 45.3145 1.36202C45.7295 1.55037 45.8538 1.96301 45.6004 2.38435C45.2855 2.90804 44.9814 3.44696 44.5772 3.91077C44.4143 4.09803 43.9739 4.21017 43.7025 4.16227C43.4648 4.1209 43.2862 3.80516 43.1028 3.63096Z" fill="white"/>
<path d="M47.1088 7.21838C46.8083 6.97232 46.4729 6.82425 46.4017 6.6065C46.3281 6.38004 46.4126 5.96523 46.5972 5.84438C47.2089 5.44263 47.8762 5.09423 48.5676 4.81769C48.7787 4.73277 49.2396 4.86778 49.3953 5.04089C49.5509 5.214 49.5992 5.71591 49.4677 5.80845C48.7485 6.30601 47.9606 6.723 47.1088 7.21838Z" fill="white"/>
<path d="M47.0169 13.3143C47.3174 13.4297 47.5092 13.4863 47.6818 13.5734C48.1885 13.8292 48.6965 14.0862 49.1876 14.366C49.6002 14.6012 49.7378 14.9485 49.4856 15.3448C49.2503 15.716 48.8546 15.8053 48.4492 15.618C47.8435 15.3393 47.2257 15.0573 46.6948 14.6828C46.4776 14.5293 46.3618 14.1112 46.4124 13.8467C46.4498 13.6376 46.8154 13.4787 47.0169 13.3143Z" fill="white"/>
<path d="M30.4337 4.68596C30.71 4.78176 30.868 4.81769 31.0032 4.88737C31.5437 5.16174 32.0807 5.44263 32.6128 5.73006C33.0242 5.95325 33.1147 6.29947 32.9277 6.66747C32.731 7.05506 32.3244 7.17809 31.9178 6.99736C31.2735 6.70993 30.6328 6.39637 30.0633 6.0066C29.8654 5.8716 29.7713 5.45461 29.8364 5.21291C29.8943 4.99625 30.2406 4.84382 30.4337 4.68596Z" fill="white"/>
<path d="M44.1103 16.2245C44.225 16.304 44.5085 16.4237 44.6605 16.624C45.0104 17.0846 45.3121 17.5789 45.6053 18.0721C45.8526 18.4891 45.7247 18.9224 45.3193 19.0998C44.8657 19.2969 44.4892 19.1728 44.2334 18.8004C43.9064 18.3236 43.5891 17.8402 43.3043 17.3426C42.993 16.8015 43.3248 16.2386 44.1103 16.2245Z" fill="white"/>
<path d="M40.4593 1.66142C40.4593 1.93361 40.4738 2.2058 40.4557 2.4758C40.4267 2.92546 40.1444 3.1922 39.6521 3.19002C39.1875 3.18784 38.9004 2.92981 38.8859 2.5052C38.8642 1.89006 38.8618 1.27274 38.8895 0.658689C38.9088 0.226457 39.2274 -0.00544539 39.6834 -1.66949e-06C40.1431 0.00544205 40.4279 0.251498 40.4496 0.68373C40.4665 1.00926 40.4532 1.33589 40.4532 1.66142C40.4557 1.66142 40.4569 1.66142 40.4593 1.66142Z" fill="white"/>
<path d="M49.2179 10.9462C48.8765 10.9473 48.5326 10.9745 48.196 10.9397C47.7375 10.894 47.4563 10.6349 47.4684 10.2135C47.4805 9.79652 47.758 9.53632 48.231 9.52434C48.9127 9.50692 49.5956 9.50801 50.2761 9.52978C50.725 9.54394 50.9759 9.80306 50.9977 10.195C51.0218 10.6185 50.76 10.8885 50.299 10.9386C49.9443 10.9767 49.5787 10.9462 49.2179 10.9462Z" fill="white"/>
</g>
<defs>
<clipPath id="clip0_143_293">
<rect width="51" height="45" fill="white"/>
</clipPath>
</defs>
</svg>
