<svg width="39" height="39" viewBox="0 0 39 39" fill="none" xmlns="http://www.w3.org/2000/svg">
<circle cx="19.5" cy="19.5" r="18.5" stroke="white" stroke-width="2"/>
<g clip-path="url(#clip0_27_445)">
<path fill-rule="evenodd" clip-rule="evenodd" d="M8.15782 13.0573C8.308 12.406 8.67717 11.8244 9.20488 11.4079C9.73259 10.9914 10.3876 10.7646 11.0625 10.7646L28.9375 10.7646C29.6125 10.7646 30.2674 10.9914 30.7951 11.4079C31.3228 11.8244 31.692 12.406 31.8422 13.0573L20 20.2212L8.15782 13.0573ZM8.08334 14.741L8.08334 25.2148L16.7274 19.9691L8.08334 14.741ZM18.1544 20.8345L8.36785 26.7718C8.60965 27.2764 8.99128 27.7027 9.46833 28.0011C9.94538 28.2994 10.4982 28.4575 11.0625 28.457L28.9375 28.457C29.5017 28.4571 30.0543 28.2986 30.5311 28C31.0079 27.7014 31.3892 27.275 31.6307 26.7703L21.8441 20.833L20 21.9491L18.1544 20.833L18.1544 20.8345ZM23.2726 19.9705L31.9167 25.2148L31.9167 14.741L23.2726 19.9691L23.2726 19.9705Z" fill="white"/>
</g>
<defs>
<clipPath id="clip0_27_445">
<rect width="22" height="23" fill="white" transform="translate(9 8)"/>
</clipPath>
</defs>
</svg>
