<svg width="39" height="39" viewBox="0 0 39 39" fill="none" xmlns="http://www.w3.org/2000/svg">
<path d="M19.9411 9.0082C17.0904 9.02201 16.732 9.03688 15.6121 9.0922C14.4923 9.15015 13.7302 9.32979 13.0629 9.59302C12.363 9.8601 11.7298 10.2768 11.2075 10.814C10.6754 11.3414 10.2645 11.9783 10.0034 12.6805C9.74629 13.3488 9.57228 14.1138 9.52582 15.2302C9.48071 16.3531 9.4691 16.7103 9.48125 19.565C9.49339 22.4169 9.50804 22.774 9.56271 23.8938C9.62 25.0123 9.79919 25.7744 10.062 26.4415C10.3341 27.1308 10.6951 27.7147 11.2819 28.2962C11.8674 28.8777 12.4546 29.2347 13.1464 29.4992C13.8171 29.7559 14.5795 29.9295 15.6984 29.9753C16.82 30.0198 17.1772 30.0312 20.0305 30.0173C22.8838 30.0035 23.2396 29.9887 24.3607 29.9333C25.4779 29.8754 26.2427 29.6957 26.9099 29.4325C27.6094 29.1653 28.2422 28.7486 28.7641 28.2115C29.3459 27.6244 29.7019 27.037 29.9681 26.3451C30.224 25.6754 30.398 24.9117 30.4457 23.7927C30.4909 22.6724 30.5025 22.3152 30.4903 19.4619C30.4782 16.6086 30.4635 16.2515 30.4088 15.1304C30.3516 14.0132 30.1711 13.2499 29.9095 12.5841C29.6425 11.8845 29.2262 11.2515 28.6897 10.7293C28.163 10.197 27.5262 9.78644 26.8239 9.52637C26.1531 9.26962 25.3881 9.09606 24.2705 9.05026C23.1489 9.0058 22.793 8.99439 19.9384 9.00822L19.9424 9.0082L19.9411 9.0082ZM19.0077 10.9062L19.9504 10.9016C22.7551 10.8881 23.0874 10.8956 24.1945 10.9415C25.2189 10.9825 25.7764 11.1518 26.1473 11.2931C26.6379 11.4812 26.9894 11.7079 27.3586 12.0738C27.7279 12.4397 27.9565 12.7879 28.149 13.278C28.295 13.6463 28.4681 14.2022 28.5184 15.2262C28.5743 16.3329 28.5862 16.665 28.5982 19.4684C28.6101 22.2718 28.601 22.6054 28.5545 23.7126C28.5129 24.737 28.3433 25.2933 28.2017 25.6642C28.0353 26.1212 27.7682 26.5349 27.4203 26.8748C27.0543 27.2442 26.7059 27.473 26.2157 27.6658C25.8486 27.812 25.2926 27.9854 24.2673 28.0377C23.1606 28.0929 22.8284 28.1064 20.0237 28.1199C17.219 28.1335 16.8855 28.1233 15.7783 28.0788C14.7539 28.0365 14.1978 27.8685 13.8269 27.7258C13.3699 27.5599 12.9559 27.2935 12.6155 26.9465C12.2645 26.6094 11.9935 26.1979 11.8225 25.7422C11.6778 25.374 11.5035 24.8181 11.4531 23.7941C11.3985 22.6874 11.3866 22.3553 11.3747 19.5492C11.3627 16.7445 11.3718 16.4136 11.417 15.3064C11.4599 14.282 11.6282 13.7244 11.7711 13.3534C11.9594 12.8627 12.1864 12.511 12.5525 12.1416C12.9186 11.7721 13.2669 11.5433 13.7572 11.3505C14.1268 11.2043 14.6815 11.0309 15.7055 10.9787C16.6744 10.9293 17.0499 10.9144 19.0076 10.9036L19.0077 10.9062ZM25.5647 12.6182C25.3991 12.619 25.2353 12.6524 25.0827 12.7165C24.93 12.7806 24.7914 12.8742 24.6749 12.9918C24.5583 13.1094 24.4661 13.2488 24.4034 13.402C24.3407 13.5553 24.3088 13.7194 24.3095 13.8849C24.3102 14.0504 24.3435 14.2142 24.4075 14.3668C24.4715 14.5195 24.5649 14.658 24.6825 14.7745C24.8 14.8909 24.9394 14.9831 25.0926 15.0457C25.2458 15.1083 25.4098 15.1401 25.5754 15.1393C25.9097 15.1377 26.2298 15.0034 26.4652 14.7658C26.7005 14.5283 26.832 14.207 26.8306 13.8727C26.8291 13.5384 26.695 13.2184 26.4576 12.9831C26.2202 12.7479 25.899 12.6166 25.5647 12.6182ZM19.9641 14.1187C19.2486 14.111 18.5385 14.2457 17.8753 14.515C17.2122 14.7843 16.6091 15.1829 16.1013 15.6874C15.5935 16.1919 15.1911 16.7924 14.9175 17.4538C14.6438 18.1152 14.5045 18.8243 14.5075 19.54C14.5106 20.2556 14.656 20.9634 14.9352 21.6221C15.2144 22.2808 15.622 22.8773 16.1341 23.3769C16.6461 23.8765 17.2526 24.2692 17.918 24.5321C18.5834 24.7949 19.2946 24.9228 20.0101 24.9082C21.4262 24.8792 22.7744 24.2946 23.7638 23.2805C24.7532 22.2663 25.3044 20.9041 25.2983 19.4877C25.2923 18.0713 24.7296 16.7144 23.7316 15.71C22.7336 14.7055 21.3804 14.1339 19.9641 14.1187ZM19.9722 16.0108C20.901 16.0063 21.7933 16.3709 22.4528 17.0245C23.1123 17.6781 23.4851 18.567 23.489 19.4958C23.493 20.4246 23.1278 21.3171 22.4739 21.977C21.8199 22.637 20.9308 23.0102 20.002 23.0147C19.0732 23.0192 18.1809 22.6546 17.5214 22.001C16.8618 21.3475 16.4891 20.4585 16.4851 19.5297C16.4812 18.6009 16.8464 17.7084 17.5003 17.0485C18.1542 16.3886 19.0434 16.0153 19.9722 16.0108Z" fill="white"/>
<circle cx="19.5" cy="19.5" r="18.5" stroke="white" stroke-width="2"/>
</svg>
